# xmcd
#
# Track frame offsets: 
#        150
#        15828
#        26397
#        45605
#        62724
#
# Disc length: 1119 seconds
#
# Revision: 0
# Processed by: cddbd v1.5.2PL0 Copyright (c) Steve Scherf et al.
# Submitted via: ExactAudioCopy v1.0b3
#
DISCID=2e045d05
DTITLE=Brigid Kaelin - Roadside Attractions EP
DYEAR=2011
DGENRE=Folk
TTITLE0=Kentucky Waltz
TTITLE1=Annie Oakley
TTITLE2=Newry Highwayman
TTITLE3=Blues As Blues Can Get
TTITLE4=Ballad Of Motorcycle Joe (Live in Wolverhampton)
EXTD=
EXTT0=
EXTT1=
EXTT2=
EXTT3=
EXTT4=
PLAYORDER=
